<svg id="visual" viewBox="0 0 3425 200" width="3425" height="200" xmlns="http://www.w3.org/2000/svg" xmlns:xlink="http://www.w3.org/1999/xlink" version="1.1"><path d="M0 69L24.8 68.8C49.7 68.7 99.3 68.3 149 76.3C198.7 84.3 248.3 100.7 298 95.2C347.7 89.7 397.3 62.3 447 57.7C496.7 53 546.3 71 596 89.2C645.7 107.3 695.3 125.7 744.8 134.8C794.3 144 843.7 144 893.2 142.8C942.7 141.7 992.3 139.3 1042 129.7C1091.7 120 1141.3 103 1191 103.7C1240.7 104.3 1290.3 122.7 1340 136.3C1389.7 150 1439.3 159 1489 141.5C1538.7 124 1588.3 80 1638 57.7C1687.7 35.3 1737.3 34.7 1787 46C1836.7 57.3 1886.3 80.7 1936 80.7C1985.7 80.7 2035.3 57.3 2085 53.7C2134.7 50 2184.3 66 2234 82.5C2283.7 99 2333.3 116 2383 117C2432.7 118 2482.3 103 2531.8 100.2C2581.3 97.3 2630.7 106.7 2680.2 100.3C2729.7 94 2779.3 72 2829 74.5C2878.7 77 2928.3 104 2978 114.3C3027.7 124.7 3077.3 118.3 3127 113.7C3176.7 109 3226.3 106 3276 114.3C3325.7 122.7 3375.3 142.3 3400.2 152.2L3425 162L3425 201L3400.2 201C3375.3 201 3325.7 201 3276 201C3226.3 201 3176.7 201 3127 201C3077.3 201 3027.7 201 2978 201C2928.3 201 2878.7 201 2829 201C2779.3 201 2729.7 201 2680.2 201C2630.7 201 2581.3 201 2531.8 201C2482.3 201 2432.7 201 2383 201C2333.3 201 2283.7 201 2234 201C2184.3 201 2134.7 201 2085 201C2035.3 201 1985.7 201 1936 201C1886.3 201 1836.7 201 1787 201C1737.3 201 1687.7 201 1638 201C1588.3 201 1538.7 201 1489 201C1439.3 201 1389.7 201 1340 201C1290.3 201 1240.7 201 1191 201C1141.3 201 1091.7 201 1042 201C992.3 201 942.7 201 893.2 201C843.7 201 794.3 201 744.8 201C695.3 201 645.7 201 596 201C546.3 201 496.7 201 447 201C397.3 201 347.7 201 298 201C248.3 201 198.7 201 149 201C99.3 201 49.7 201 24.8 201L0 201Z" fill="#a6d8ec" stroke-linecap="round" stroke-linejoin="miter"></path></svg>