<svg id="visual" viewBox="0 0 3425 300" width="3425" height="300" xmlns="http://www.w3.org/2000/svg" xmlns:xlink="http://www.w3.org/1999/xlink" version="1.1"><path d="M0 161L24.8 143.3C49.7 125.7 99.3 90.3 149 99.2C198.7 108 248.3 161 298 174.7C347.7 188.3 397.3 162.7 447 148.3C496.7 134 546.3 131 596 139.7C645.7 148.3 695.3 168.7 744.8 177.7C794.3 186.7 843.7 184.3 893.2 171.2C942.7 158 992.3 134 1042 144.5C1091.7 155 1141.3 200 1191 204C1240.7 208 1290.3 171 1340 139.3C1389.7 107.7 1439.3 81.3 1489 69C1538.7 56.7 1588.3 58.3 1638 75.8C1687.7 93.3 1737.3 126.7 1787 157.2C1836.7 187.7 1886.3 215.3 1936 202.3C1985.7 189.3 2035.3 135.7 2085 109.5C2134.7 83.3 2184.3 84.7 2234 104.8C2283.7 125 2333.3 164 2383 164C2432.7 164 2482.3 125 2531.8 122C2581.3 119 2630.7 152 2680.2 149.2C2729.7 146.3 2779.3 107.7 2829 114.2C2878.7 120.7 2928.3 172.3 2978 175.3C3027.7 178.3 3077.3 132.7 3127 109.8C3176.7 87 3226.3 87 3276 106C3325.7 125 3375.3 163 3400.2 182L3425 201L3425 301L3400.2 301C3375.3 301 3325.7 301 3276 301C3226.3 301 3176.7 301 3127 301C3077.3 301 3027.7 301 2978 301C2928.3 301 2878.7 301 2829 301C2779.3 301 2729.7 301 2680.2 301C2630.7 301 2581.3 301 2531.8 301C2482.3 301 2432.7 301 2383 301C2333.3 301 2283.7 301 2234 301C2184.3 301 2134.7 301 2085 301C2035.3 301 1985.7 301 1936 301C1886.3 301 1836.7 301 1787 301C1737.3 301 1687.7 301 1638 301C1588.3 301 1538.7 301 1489 301C1439.3 301 1389.7 301 1340 301C1290.3 301 1240.7 301 1191 301C1141.3 301 1091.7 301 1042 301C992.3 301 942.7 301 893.2 301C843.7 301 794.3 301 744.8 301C695.3 301 645.7 301 596 301C546.3 301 496.7 301 447 301C397.3 301 347.7 301 298 301C248.3 301 198.7 301 149 301C99.3 301 49.7 301 24.8 301L0 301Z" fill="#75c6e6" stroke-linecap="round" stroke-linejoin="miter"></path></svg>