<svg id="visual" viewBox="0 0 3425 800" width="3425" height="800"
    xmlns="http://www.w3.org/2000/svg"
    xmlns:xlink="http://www.w3.org/1999/xlink" version="1.1">
    <path d="M0 491L38 481C76 471 152 451 228.2 443C304.3 435 380.7 439 456.8 471.5C533 504 609 565 685 554.3C761 543.7 837 461.3 913.2 430.7C989.3 400 1065.7 421 1141.8 466.2C1218 511.3 1294 580.7 1370 593.7C1446 606.7 1522 563.3 1598.2 555.7C1674.3 548 1750.7 576 1826.8 573.8C1903 571.7 1979 539.3 2055 533.8C2131 528.3 2207 549.7 2283.2 547C2359.3 544.3 2435.7 517.7 2511.8 522.3C2588 527 2664 563 2740 560.2C2816 557.3 2892 515.7 2968.2 506.3C3044.3 497 3120.7 520 3196.8 534.8C3273 549.7 3349 556.3 3387 559.7L3425 563L3425 801L3387 801C3349 801 3273 801 3196.8 801C3120.7 801 3044.3 801 2968.2 801C2892 801 2816 801 2740 801C2664 801 2588 801 2511.8 801C2435.7 801 2359.3 801 2283.2 801C2207 801 2131 801 2055 801C1979 801 1903 801 1826.8 801C1750.7 801 1674.3 801 1598.2 801C1522 801 1446 801 1370 801C1294 801 1218 801 1141.8 801C1065.7 801 989.3 801 913.2 801C837 801 761 801 685 801C609 801 533 801 456.8 801C380.7 801 304.3 801 228.2 801C152 801 76 801 38 801L0 801Z" fill="#43AFDA" stroke-linecap="round" stroke-linejoin="miter"></path>
</svg>