<svg id="visual" viewBox="0 0 3425 100" width="3425" height="100" xmlns="http://www.w3.org/2000/svg" xmlns:xlink="http://www.w3.org/1999/xlink" version="1.1"><path d="M0 49L24.8 46C49.7 43 99.3 37 149 42.5C198.7 48 248.3 65 298 62.7C347.7 60.3 397.3 38.7 447 31.5C496.7 24.3 546.3 31.7 596 36C645.7 40.3 695.3 41.7 744.8 43.2C794.3 44.7 843.7 46.3 893.2 49.8C942.7 53.3 992.3 58.7 1042 61C1091.7 63.3 1141.3 62.7 1191 59.5C1240.7 56.3 1290.3 50.7 1340 48.3C1389.7 46 1439.3 47 1489 53.2C1538.7 59.3 1588.3 70.7 1638 72.5C1687.7 74.3 1737.3 66.7 1787 63.7C1836.7 60.7 1886.3 62.3 1936 57.3C1985.7 52.3 2035.3 40.7 2085 42.5C2134.7 44.3 2184.3 59.7 2234 59.8C2283.7 60 2333.3 45 2383 43.7C2432.7 42.3 2482.3 54.7 2531.8 59.7C2581.3 64.7 2630.7 62.3 2680.2 63.3C2729.7 64.3 2779.3 68.7 2829 62.2C2878.7 55.7 2928.3 38.3 2978 31.8C3027.7 25.3 3077.3 29.7 3127 37C3176.7 44.3 3226.3 54.7 3276 62.2C3325.7 69.7 3375.3 74.3 3400.2 76.7L3425 79L3425 101L3400.2 101C3375.3 101 3325.7 101 3276 101C3226.3 101 3176.7 101 3127 101C3077.3 101 3027.7 101 2978 101C2928.3 101 2878.7 101 2829 101C2779.3 101 2729.7 101 2680.2 101C2630.7 101 2581.3 101 2531.8 101C2482.3 101 2432.7 101 2383 101C2333.3 101 2283.7 101 2234 101C2184.3 101 2134.7 101 2085 101C2035.3 101 1985.7 101 1936 101C1886.3 101 1836.7 101 1787 101C1737.3 101 1687.7 101 1638 101C1588.3 101 1538.7 101 1489 101C1439.3 101 1389.7 101 1340 101C1290.3 101 1240.7 101 1191 101C1141.3 101 1091.7 101 1042 101C992.3 101 942.7 101 893.2 101C843.7 101 794.3 101 744.8 101C695.3 101 645.7 101 596 101C546.3 101 496.7 101 447 101C397.3 101 347.7 101 298 101C248.3 101 198.7 101 149 101C99.3 101 49.7 101 24.8 101L0 101Z" fill="#ffffff" stroke-linecap="round" stroke-linejoin="miter"></path></svg>